<?xml version="1.0"?>
<svg xmlns="http://www.w3.org/2000/svg" viewBox="0 0 512 512" width="512" height="512"><g id="outline"><path d="M429.562,100.815a91.929,91.929,0,0,1-50.724-5.086,108.6,108.6,0,0,0-70.053-3.5,8,8,0,0,0-3.37,13.415l64,62.4a8,8,0,0,0,11.118.051l56-53.634a8,8,0,0,0-6.971-13.647ZM375.05,151.193l-47.668-46.48a92.535,92.535,0,0,1,45.514,5.871,107.912,107.912,0,0,0,36.542,7.674Z"/><path d="M407,88a7.974,7.974,0,0,0,5.657-2.343l8-8a8,8,0,0,0-11.314-11.314l-8,8A8,8,0,0,0,407,88Z"/><path d="M433.343,42.343l-8,8a8,8,0,0,0,11.314,11.314l8-8a8,8,0,0,0-11.314-11.314Z"/><path d="M408,256a8,8,0,0,0-8,8v24a8,8,0,0,0,16,0V264A8,8,0,0,0,408,256Z"/><path d="M408,312a8,8,0,0,0-8,8v8a8,8,0,0,0,16,0v-8A8,8,0,0,0,408,312Z"/><path d="M439.988,16a54.649,54.649,0,0,0-38.9,16.113l-24.9,24.9-24.9-24.9a55.012,55.012,0,0,0-77.8,77.8L352.385,188.8V232a8,8,0,0,0,8,8H368v68a52.059,52.059,0,0,1-52,52,68.077,68.077,0,0,0-68,68,52,52,0,0,1-99.995,20h60a8,8,0,0,0,8-8V338.667l2.558-3.41A107.887,107.887,0,0,0,240,270.929V208c0-.138-.014-.273-.021-.409A27.9,27.9,0,0,0,248,188V156a27.977,27.977,0,0,0-44.239-22.788,27.947,27.947,0,0,0-40-8,27.947,27.947,0,0,0-40-8A27.986,27.986,0,0,0,73.2,123.906,29.23,29.23,0,0,0,58.577,120a29.563,29.563,0,0,0-29.124,25.259l-5.314,37.2-3.823,15.29A144.7,144.7,0,0,0,16,232.812v6.62A143.571,143.571,0,0,0,56,339.26V440a8,8,0,0,0,8,8h67.006A68,68,0,0,0,264,428a52.059,52.059,0,0,1,52-52,68.077,68.077,0,0,0,68-68V240h8.385a8,8,0,0,0,8-8V188.414l78.5-78.5A55.012,55.012,0,0,0,439.988,16ZM220,144a12.013,12.013,0,0,1,12,12v32a12,12,0,0,1-24,0V156A12.013,12.013,0,0,1,220,144Zm-40-8a12.013,12.013,0,0,1,12,12v32a12,12,0,0,1-24,0V148A12.013,12.013,0,0,1,180,136Zm-40-8a12.013,12.013,0,0,1,12,12v32a12,12,0,0,1-24,0V140A12.013,12.013,0,0,1,140,128Zm-52,4a12,12,0,0,1,24,0v32a12,12,0,0,1-24,0ZM72,432V336a8,8,0,0,0-2.343-5.657A127.726,127.726,0,0,1,32,239.432v-6.62a128.688,128.688,0,0,1,3.838-31.182l3.923-15.69a7.866,7.866,0,0,0,.159-.809l5.373-37.61A13.421,13.421,0,0,1,72,149.421V224a8,8,0,0,0,4.422,7.155l20,10A71.215,71.215,0,0,1,136,305.2V320a8,8,0,0,0,16,0V305.2A87.192,87.192,0,0,0,130.829,248H184a8,8,0,0,0,0-16H112.529a89.339,89.339,0,0,0-8.956-5.158L88,219.056V189.293a27.923,27.923,0,0,0,28.239-2.5,27.947,27.947,0,0,0,40,8,27.947,27.947,0,0,0,40,8A27.945,27.945,0,0,0,224,215.71v55.219a91.785,91.785,0,0,1-18.243,54.728L201.6,331.2A8,8,0,0,0,200,336v96H144.169c-.1-1.322-.169-16-.169-16h24a8,8,0,0,0,8-8V376a8,8,0,0,0-8-8H104a8,8,0,0,0-8,8v32a8,8,0,0,0,8,8h24s.05,14.675.127,16Zm40-32V384h48v16ZM467.573,98.6l-80.845,80.846a8,8,0,0,0-2.343,5.657V224h-16V185.484a8,8,0,0,0-2.343-5.656L284.812,98.6a39.011,39.011,0,1,1,55.169-55.171L370.535,73.98a8,8,0,0,0,11.315,0L412.4,43.426A39.011,39.011,0,1,1,467.573,98.6Z"/></g></svg>
