<?xml version="1.0" encoding="UTF-8"?>
<svg xmlns="http://www.w3.org/2000/svg" xmlns:xlink="http://www.w3.org/1999/xlink" width="375pt" height="374.999991pt" viewBox="0 0 375 374.999991" version="1.2">
<defs>
<clipPath id="clip1">
  <path d="M 150 201 L 228 201 L 228 262.5 L 150 262.5 Z M 150 201 "/>
</clipPath>
</defs>
<g id="surface1">
<path style=" stroke:none;fill-rule:nonzero;fill:rgb(23.919678%,37.649536%,67.449951%);fill-opacity:1;" d="M 198.308594 115.863281 C 171.929688 112.828125 162.980469 124.574219 160.179688 130.507812 C 159.203125 132.582031 157.476562 134.171875 155.355469 135.0625 C 134.6875 143.796875 123.503906 171.503906 129.378906 173.996094 C 133.449219 175.722656 129.941406 188.289062 132.953125 199.773438 L 245.28125 199.773438 C 245.972656 195.617188 246.324219 180.269531 245.496094 169.867188 C 245.335938 167.835938 246.140625 165.871094 247.640625 164.480469 C 248.945312 163.269531 250.40625 161.726562 250.652344 158.1875 C 251.273438 149.316406 222.300781 119.277344 198.308594 115.863281 "/>
<path style=" stroke:none;fill-rule:nonzero;fill:rgb(97.648621%,49.01886%,54.899597%);fill-opacity:1;" d="M 132.953125 198.386719 C 127.734375 200.863281 126.125 207.171875 128.285156 214.03125 C 130.421875 220.851562 139.15625 227.109375 145.671875 224.695312 L 143.15625 198.441406 C 141.367188 197.304688 137.15625 196.398438 132.953125 198.386719 "/>
<path style=" stroke:none;fill-rule:nonzero;fill:rgb(97.648621%,49.01886%,54.899597%);fill-opacity:1;" d="M 245.28125 198.386719 C 241.078125 196.398438 236.859375 197.304688 235.078125 198.441406 L 232.558594 224.695312 C 239.082031 227.109375 247.8125 220.851562 249.949219 214.03125 C 252.109375 207.171875 250.5 200.863281 245.28125 198.386719 "/>
<path style=" stroke:none;fill-rule:nonzero;fill:rgb(96.469116%,36.859131%,48.239136%);fill-opacity:1;" d="M 144.878906 212.863281 C 144.230469 212.863281 143.585938 212.558594 143.175781 211.996094 C 141.042969 209.03125 136.5625 209.222656 136.519531 209.226562 C 135.335938 209.304688 134.371094 208.429688 134.300781 207.28125 C 134.222656 206.132812 135.101562 205.148438 136.257812 205.078125 C 136.535156 205.054688 143.074219 204.707031 146.578125 209.570312 C 147.253906 210.503906 147.035156 211.804688 146.097656 212.472656 C 145.726562 212.738281 145.304688 212.863281 144.878906 212.863281 "/>
<path style=" stroke:none;fill-rule:nonzero;fill:rgb(96.469116%,36.859131%,48.239136%);fill-opacity:1;" d="M 233.355469 212.863281 C 232.929688 212.863281 232.507812 212.738281 232.136719 212.472656 C 231.199219 211.804688 230.980469 210.503906 231.65625 209.570312 C 235.160156 204.707031 241.703125 205.0625 241.976562 205.078125 C 243.132812 205.148438 244.011719 206.132812 243.9375 207.28125 C 243.863281 208.425781 242.902344 209.285156 241.726562 209.226562 C 241.625 209.226562 237.1875 209.039062 235.054688 211.996094 C 234.648438 212.558594 234.003906 212.863281 233.355469 212.863281 "/>
<path style=" stroke:none;fill-rule:nonzero;fill:rgb(100%,61.959839%,65.489197%);fill-opacity:1;" d="M 235.078125 198.441406 C 234.632812 180.46875 227.421875 159.058594 212.066406 147.648438 C 201.164062 139.550781 180.980469 136.46875 170.726562 145.113281 C 170.070312 145.671875 169.363281 146.164062 168.589844 146.550781 C 150.734375 155.472656 143.589844 180.847656 143.15625 198.441406 C 143.140625 203.53125 142.953125 213.140625 145.476562 223.894531 C 149.253906 240 161.597656 250.925781 174.105469 256.644531 C 179.023438 259.054688 184.855469 260.070312 189.085938 260.070312 C 193.3125 260.070312 199.210938 259.054688 204.128906 256.644531 C 216.636719 250.925781 228.980469 240 232.757812 223.894531 C 235.28125 213.140625 235.09375 203.53125 235.078125 198.441406 "/>
<path style=" stroke:none;fill-rule:nonzero;fill:rgb(20.779419%,29.798889%,55.688477%);fill-opacity:1;" d="M 219.605469 138.722656 C 219.238281 138.722656 218.855469 138.625 218.515625 138.417969 L 217.535156 137.816406 C 209.542969 132.875 188.304688 119.75 170.789062 136.457031 C 169.960938 137.253906 168.632812 137.226562 167.832031 136.398438 C 167.03125 135.566406 167.058594 134.246094 167.890625 133.457031 C 187.761719 114.507812 211.835938 129.390625 219.75 134.285156 L 220.703125 134.871094 C 221.6875 135.46875 222 136.75 221.394531 137.730469 C 220.996094 138.367188 220.308594 138.722656 219.605469 138.722656 "/>
<path style=" stroke:none;fill-rule:nonzero;fill:rgb(20.779419%,29.798889%,55.688477%);fill-opacity:1;" d="M 223.285156 178.816406 C 218.542969 175.953125 210.785156 174.972656 204.621094 177.03125 C 203.339844 177.457031 202.621094 178.816406 202.902344 180.128906 C 203.199219 181.511719 204.5 182.4375 205.90625 182.242188 C 209.191406 181.792969 215.0625 181.234375 219.238281 182.230469 C 222.359375 182.984375 223.628906 182.246094 224.125 181.351562 C 224.625 180.453125 224.171875 179.355469 223.285156 178.816406 "/>
<path style=" stroke:none;fill-rule:nonzero;fill:rgb(23.919678%,37.649536%,67.449951%);fill-opacity:1;" d="M 212.292969 203.078125 C 209.894531 203.078125 207.957031 201.144531 207.957031 198.761719 L 207.957031 196.117188 C 207.957031 193.734375 209.894531 191.796875 212.292969 191.796875 C 214.691406 191.796875 216.636719 193.734375 216.636719 196.117188 L 216.636719 198.761719 C 216.636719 201.144531 214.691406 203.078125 212.292969 203.078125 "/>
<path style=" stroke:none;fill-rule:nonzero;fill:rgb(20.779419%,29.798889%,55.688477%);fill-opacity:1;" d="M 220.019531 195.023438 C 219.523438 195.023438 219.03125 194.84375 218.632812 194.492188 C 216.015625 192.167969 211.160156 191.691406 208.019531 193.457031 C 207.023438 194.019531 205.742188 193.671875 205.171875 192.671875 C 204.605469 191.667969 204.957031 190.402344 205.960938 189.832031 C 210.667969 187.1875 217.464844 187.863281 221.421875 191.390625 C 222.28125 192.15625 222.355469 193.472656 221.585938 194.328125 C 221.171875 194.785156 220.597656 195.023438 220.019531 195.023438 "/>
<path style=" stroke:none;fill-rule:nonzero;fill:rgb(20.779419%,29.798889%,55.688477%);fill-opacity:1;" d="M 154.949219 178.816406 C 159.683594 175.953125 167.449219 174.972656 173.613281 177.03125 C 174.894531 177.457031 175.609375 178.816406 175.328125 180.128906 C 175.035156 181.511719 173.726562 182.4375 172.320312 182.242188 C 169.039062 181.792969 163.171875 181.234375 158.996094 182.230469 C 155.875 182.984375 154.605469 182.246094 154.109375 181.351562 C 153.609375 180.453125 154.058594 179.355469 154.949219 178.816406 "/>
<path style=" stroke:none;fill-rule:nonzero;fill:rgb(23.919678%,37.649536%,67.449951%);fill-opacity:1;" d="M 165.941406 203.078125 C 168.339844 203.078125 170.285156 201.144531 170.285156 198.761719 L 170.285156 196.117188 C 170.285156 193.734375 168.339844 191.796875 165.941406 191.796875 C 163.542969 191.796875 161.597656 193.734375 161.597656 196.117188 L 161.597656 198.761719 C 161.597656 201.144531 163.542969 203.078125 165.941406 203.078125 "/>
<path style=" stroke:none;fill-rule:nonzero;fill:rgb(20.779419%,29.798889%,55.688477%);fill-opacity:1;" d="M 158.210938 195.023438 C 157.636719 195.023438 157.0625 194.785156 156.648438 194.328125 C 155.878906 193.472656 155.953125 192.15625 156.8125 191.390625 C 160.773438 187.863281 167.5625 187.183594 172.273438 189.835938 C 173.273438 190.402344 173.628906 191.667969 173.0625 192.671875 C 172.492188 193.671875 171.214844 194.019531 170.207031 193.457031 C 167.074219 191.695312 162.21875 192.167969 159.601562 194.492188 C 159.203125 194.84375 158.707031 195.023438 158.210938 195.023438 "/>
<path style=" stroke:none;fill-rule:nonzero;fill:rgb(100%,100%,100%);fill-opacity:1;" d="M 223.453125 217.8125 C 222.964844 217.8125 222.46875 217.644531 222.070312 217.292969 C 221.210938 216.535156 221.121094 215.21875 221.886719 214.359375 C 221.972656 214.265625 230.246094 204.898438 233.136719 197.671875 C 233.5625 196.605469 234.777344 196.078125 235.859375 196.507812 C 236.925781 196.933594 237.453125 198.140625 237.023438 199.210938 C 233.863281 207.113281 225.382812 216.707031 225.023438 217.109375 C 224.609375 217.574219 224.039062 217.8125 223.453125 217.8125 "/>
<path style=" stroke:none;fill-rule:nonzero;fill:rgb(100%,100%,100%);fill-opacity:1;" d="M 154.78125 217.8125 C 154.195312 217.8125 153.625 217.574219 153.210938 217.109375 C 152.851562 216.707031 144.371094 207.113281 141.210938 199.210938 C 140.78125 198.140625 141.308594 196.933594 142.382812 196.507812 C 143.449219 196.078125 144.671875 196.605469 145.097656 197.671875 C 147.988281 204.898438 156.261719 214.265625 156.347656 214.359375 C 157.113281 215.21875 157.03125 216.535156 156.164062 217.292969 C 155.765625 217.644531 155.269531 217.8125 154.78125 217.8125 "/>
<g clip-path="url(#clip1)" clip-rule="nonzero">
<path style=" stroke:none;fill-rule:nonzero;fill:rgb(41.178894%,85.879517%,97.648621%);fill-opacity:1;" d="M 189.117188 262.125 C 202.941406 262.125 218.992188 251.421875 225.121094 241.175781 C 229.296875 234.199219 228.433594 223.417969 223.453125 215.734375 C 217.382812 206.359375 199.308594 201.351562 189.117188 201.351562 C 178.925781 201.351562 160.851562 206.359375 154.78125 215.734375 C 149.796875 223.417969 148.9375 234.199219 153.113281 241.175781 C 159.242188 251.421875 175.292969 262.125 189.117188 262.125 "/>
</g>
<path style=" stroke:none;fill-rule:nonzero;fill:rgb(21.179199%,72.158813%,87.838745%);fill-opacity:1;" d="M 216.9375 222.289062 C 216.441406 222.289062 215.945312 222.117188 215.546875 221.765625 C 208.042969 215.148438 196.570312 211.6875 189.117188 211.6875 C 181.660156 211.6875 170.191406 215.148438 162.6875 221.765625 C 161.820312 222.527344 160.496094 222.445312 159.734375 221.589844 C 158.964844 220.730469 159.042969 219.414062 159.90625 218.652344 C 168.578125 211.007812 181.128906 207.527344 189.117188 207.527344 C 197.105469 207.527344 209.65625 211.007812 218.328125 218.652344 C 219.191406 219.414062 219.269531 220.730469 218.507812 221.589844 C 218.09375 222.054688 217.515625 222.289062 216.9375 222.289062 "/>
</g>
</svg>
