<?xml version="1.0" encoding="UTF-8"?>
<svg xmlns="http://www.w3.org/2000/svg" xmlns:xlink="http://www.w3.org/1999/xlink" width="375pt" height="374.999991pt" viewBox="0 0 375 374.999991" version="1.2">
<defs>
<clipPath id="clip1">
  <path d="M 189 127 L 256.6875 127 L 256.6875 193 L 189 193 Z M 189 127 "/>
</clipPath>
<clipPath id="clip2">
  <path d="M 118.6875 112.5 L 185 112.5 L 185 262.5 L 118.6875 262.5 Z M 118.6875 112.5 "/>
</clipPath>
</defs>
<g id="surface1">
<path style=" stroke:none;fill-rule:nonzero;fill:rgb(100%,84.309387%,50.979614%);fill-opacity:1;" d="M 244.433594 137.5 L 239.40625 137.5 C 235.054688 137.5 232.21875 139.246094 229.351562 142.5 L 216.78125 157.5 C 213.835938 160.429688 213.835938 164.570312 216.78125 167.5 L 219.296875 170 L 209.242188 180 L 196.9375 180 C 194.433594 180 192.117188 181.699219 191.714844 184.160156 C 191.203125 187.292969 193.621094 190 196.671875 190 L 211.753906 190 L 234.378906 180 L 244.433594 160 L 254.488281 152.5 L 254.488281 130 L 244.433594 137.5 "/>
<path style=" stroke:none;fill-rule:nonzero;fill:rgb(82.749939%,51.759338%,23.919678%);fill-opacity:1;" d="M 216.78125 167.5 L 219.296875 170 L 204.214844 170 C 201.433594 170 199.1875 167.761719 199.1875 165 C 199.1875 162.234375 201.433594 160 204.214844 160 L 215.09375 160 C 214.050781 162.507812 214.601562 165.332031 216.78125 167.5 "/>
<path style=" stroke:none;fill-rule:nonzero;fill:rgb(97.648621%,73.329163%,29.40979%);fill-opacity:1;" d="M 201.699219 180 C 198.921875 180 196.671875 177.761719 196.671875 175 C 196.671875 172.234375 198.921875 170 201.699219 170 L 219.296875 170 L 209.242188 180 L 201.699219 180 "/>
<path style=" stroke:none;fill-rule:nonzero;fill:rgb(80.389404%,93.328857%,96.469116%);fill-opacity:1;" d="M 163.996094 165 L 138.859375 165 L 129.453125 170.613281 C 124.945312 173.300781 121.265625 179.773438 121.265625 185 L 121.265625 250 C 121.265625 255.515625 125.769531 260 131.320312 260 L 171.535156 260 C 177.09375 260 181.589844 255.515625 181.589844 250 L 181.589844 185 C 181.589844 179.773438 177.910156 173.300781 173.402344 170.613281 L 163.996094 165 "/>
<path style=" stroke:none;fill-rule:nonzero;fill:rgb(100%,84.309387%,50.979614%);fill-opacity:1;" d="M 171.535156 165 L 131.320312 165 L 131.320312 150 L 171.535156 150 L 171.535156 165 "/>
<path style=" stroke:none;fill-rule:nonzero;fill:rgb(97.648621%,73.329163%,29.40979%);fill-opacity:1;" d="M 163.996094 150 L 138.859375 150 L 138.859375 140 L 163.996094 140 L 163.996094 150 "/>
<path style=" stroke:none;fill-rule:nonzero;fill:rgb(100%,84.309387%,50.979614%);fill-opacity:1;" d="M 158.96875 140 L 143.886719 140 L 143.886719 125 L 158.96875 125 L 158.96875 140 "/>
<path style=" stroke:none;fill-rule:nonzero;fill:rgb(97.648621%,73.329163%,29.40979%);fill-opacity:1;" d="M 161.480469 115 L 141.375 115 C 138.59375 115 136.347656 117.234375 136.347656 120 C 136.347656 122.761719 138.59375 125 141.375 125 L 181.589844 125 L 181.589844 120 L 161.480469 115 "/>
<path style=" stroke:none;fill-rule:nonzero;fill:rgb(95.689392%,95.689392%,90.19928%);fill-opacity:1;" d="M 171.535156 220 L 131.320312 220 L 131.320312 180 L 171.535156 180 L 171.535156 220 "/>
<path style=" stroke:none;fill-rule:nonzero;fill:rgb(19.60907%,69.40918%,79.998779%);fill-opacity:1;" d="M 181.589844 187.5 C 175.308594 187.5 177.820312 190 171.535156 190 L 171.535156 220 L 131.320312 220 L 131.320312 190 C 125.035156 190 127.546875 187.5 121.265625 187.5 L 121.265625 250 C 121.265625 255.515625 125.769531 260 131.320312 260 L 171.535156 260 C 177.09375 260 181.589844 255.515625 181.589844 250 L 181.589844 187.5 "/>
<path style=" stroke:none;fill-rule:nonzero;fill:rgb(97.648621%,73.329163%,29.40979%);fill-opacity:1;" d="M 156.453125 180 L 146.402344 180 L 146.402344 165 L 156.453125 165 L 156.453125 180 "/>
<path style=" stroke:none;fill-rule:nonzero;fill:rgb(86.669922%,24.308777%,27.449036%);fill-opacity:1;" d="M 161.480469 195 L 156.453125 195 L 156.453125 190 L 146.402344 190 L 146.402344 195 L 141.375 195 L 141.375 205 L 146.402344 205 L 146.402344 210 L 156.453125 210 L 156.453125 205 L 161.480469 205 L 161.480469 195 "/>
<path style=" stroke:none;fill-rule:nonzero;fill:rgb(82.749939%,51.759338%,23.919678%);fill-opacity:1;" d="M 143.886719 157.5 L 138.859375 157.5 L 138.859375 150 L 143.886719 150 L 143.886719 157.5 "/>
<path style=" stroke:none;fill-rule:nonzero;fill:rgb(82.749939%,51.759338%,23.919678%);fill-opacity:1;" d="M 153.941406 157.5 L 148.914062 157.5 L 148.914062 150 L 153.941406 150 L 153.941406 157.5 "/>
<path style=" stroke:none;fill-rule:nonzero;fill:rgb(82.749939%,51.759338%,23.919678%);fill-opacity:1;" d="M 163.996094 157.5 L 158.96875 157.5 L 158.96875 150 L 163.996094 150 L 163.996094 157.5 "/>
<path style=" stroke:none;fill-rule:nonzero;fill:rgb(19.60907%,69.40918%,79.998779%);fill-opacity:1;" d="M 191.644531 127.5 C 191.644531 127.5 206.078125 130.242188 209.242188 137.5 C 212.699219 145.417969 201.699219 150 199.1875 142.5 C 196.671875 135 191.644531 127.5 191.644531 127.5 "/>
<path style=" stroke:none;fill-rule:nonzero;fill:rgb(17.649841%,45.878601%,73.329163%);fill-opacity:1;" d="M 143.886719 240 C 143.886719 242.761719 141.636719 245 138.859375 245 C 136.082031 245 133.832031 242.761719 133.832031 240 C 133.832031 237.234375 136.082031 235 138.859375 235 C 141.636719 235 143.886719 237.234375 143.886719 240 "/>
<path style=" stroke:none;fill-rule:nonzero;fill:rgb(17.649841%,45.878601%,73.329163%);fill-opacity:1;" d="M 163.996094 235 C 163.996094 237.761719 161.746094 240 158.96875 240 C 156.191406 240 153.941406 237.761719 153.941406 235 C 153.941406 232.234375 156.191406 230 158.96875 230 C 161.746094 230 163.996094 232.234375 163.996094 235 "/>
<path style=" stroke:none;fill-rule:nonzero;fill:rgb(95.689392%,95.689392%,90.19928%);fill-opacity:1;" d="M 171.535156 252.5 L 166.507812 252.5 L 166.507812 247.5 L 171.535156 247.5 L 171.535156 252.5 "/>
<path style=" stroke:none;fill-rule:nonzero;fill:rgb(95.689392%,95.689392%,90.19928%);fill-opacity:1;" d="M 161.480469 252.5 L 156.453125 252.5 L 156.453125 247.5 L 161.480469 247.5 L 161.480469 252.5 "/>
<g clip-path="url(#clip1)" clip-rule="nonzero">
<path style=" stroke:none;fill-rule:nonzero;fill:rgb(0%,0%,0%);fill-opacity:1;" d="M 242.183594 158.875 L 232.53125 178.074219 L 211.226562 187.5 L 196.671875 187.5 C 195.9375 187.5 195.238281 187.175781 194.757812 186.621094 C 194.269531 186.042969 194.070312 185.320312 194.199219 184.558594 C 194.386719 183.40625 195.59375 182.5 196.9375 182.5 L 209.242188 182.5 C 209.910156 182.5 210.546875 182.234375 211.019531 181.765625 L 233.640625 159.265625 L 230.085938 155.730469 L 219.296875 166.464844 L 218.558594 165.730469 C 216.585938 163.769531 216.585938 161.230469 218.714844 159.101562 L 231.246094 144.140625 C 233.898438 141.121094 236.117188 140 239.40625 140 L 244.433594 140 C 244.972656 140 245.503906 139.824219 245.945312 139.5 L 251.972656 135 L 251.972656 151.25 L 242.921875 157.996094 C 242.617188 158.230469 242.359375 158.535156 242.183594 158.875 Z M 201.699219 172.5 L 213.226562 172.5 L 208.199219 177.5 L 201.699219 177.5 C 200.316406 177.5 199.1875 176.375 199.1875 175 C 199.1875 173.621094 200.316406 172.5 201.699219 172.5 Z M 204.214844 162.5 L 212.050781 162.5 C 212.050781 164.226562 212.578125 165.9375 213.589844 167.5 L 204.214844 167.5 C 202.828125 167.5 201.699219 166.375 201.699219 165 C 201.699219 163.621094 202.828125 162.5 204.214844 162.5 Z M 256 154.5 C 256.628906 154.023438 257 153.289062 257 152.5 L 257 130 C 257 129.050781 256.460938 128.191406 255.617188 127.761719 C 254.761719 127.34375 253.742188 127.429688 252.976562 127.996094 L 243.597656 135 L 239.40625 135 C 234.644531 135 231.070312 136.746094 227.417969 140.898438 L 215.003906 155.730469 C 214.445312 156.289062 213.992188 156.882812 213.589844 157.5 L 204.214844 157.5 C 200.050781 157.5 196.671875 160.859375 196.671875 165 C 196.671875 166.335938 197.054688 167.585938 197.683594 168.671875 C 195.574219 170.007812 194.160156 172.332031 194.160156 175 C 194.160156 176.003906 194.367188 176.960938 194.730469 177.839844 C 191.921875 178.640625 189.703125 180.90625 189.230469 183.757812 C 188.878906 185.957031 189.496094 188.183594 190.929688 189.863281 C 192.363281 191.53125 194.453125 192.5 196.671875 192.5 L 211.753906 192.5 C 212.109375 192.5 212.453125 192.421875 212.777344 192.285156 L 235.398438 182.285156 C 235.929688 182.050781 236.359375 181.640625 236.625 181.121094 L 246.414062 161.640625 L 256 154.5 "/>
</g>
<g clip-path="url(#clip2)" clip-rule="nonzero">
<path style=" stroke:none;fill-rule:nonzero;fill:rgb(0%,0%,0%);fill-opacity:1;" d="M 123.777344 250 L 123.777344 190.261719 C 124.25 190.398438 124.554688 190.605469 124.898438 190.828125 C 125.898438 191.492188 126.929688 192.078125 128.804688 192.34375 L 128.804688 220 C 128.804688 221.375 129.933594 222.5 131.320312 222.5 L 171.535156 222.5 C 172.921875 222.5 174.050781 221.375 174.050781 220 L 174.050781 192.34375 C 175.925781 192.078125 176.957031 191.492188 177.957031 190.828125 C 178.300781 190.605469 178.605469 190.398438 179.078125 190.261719 L 179.078125 250 C 179.078125 254.140625 175.699219 257.5 171.535156 257.5 L 131.320312 257.5 C 127.15625 257.5 123.777344 254.140625 123.777344 250 Z M 123.777344 185 C 123.777344 180.613281 126.96875 175.007812 130.75 172.753906 L 139.554688 167.5 L 143.886719 167.5 L 143.886719 177.5 L 131.320312 177.5 C 129.933594 177.5 128.804688 178.621094 128.804688 180 L 128.804688 187.234375 C 128.332031 187.097656 128.027344 186.894531 127.6875 186.667969 C 126.683594 186.003906 125.644531 185.429688 123.777344 185.164062 Z M 133.832031 152.5 L 138.859375 152.5 L 138.859375 157.5 L 143.886719 157.5 L 143.886719 152.5 L 148.914062 152.5 L 148.914062 157.5 L 153.941406 157.5 L 153.941406 152.5 L 158.96875 152.5 L 158.96875 157.5 L 163.996094 157.5 L 163.996094 152.5 L 169.023438 152.5 L 169.023438 162.5 L 133.832031 162.5 Z M 141.375 142.5 L 161.480469 142.5 L 161.480469 147.5 L 141.375 147.5 Z M 156.453125 127.5 L 156.453125 137.5 L 146.402344 137.5 L 146.402344 127.5 Z M 138.859375 120 C 138.859375 118.621094 139.988281 117.5 141.375 117.5 L 161.179688 117.5 L 179.078125 121.953125 L 179.078125 122.5 L 141.375 122.5 C 139.988281 122.5 138.859375 121.375 138.859375 120 Z M 148.914062 177.5 L 148.914062 167.5 L 153.941406 167.5 L 153.941406 177.5 Z M 169.023438 182.5 L 169.023438 217.5 L 133.832031 217.5 L 133.832031 182.5 Z M 172.105469 172.753906 C 175.886719 175.007812 179.078125 180.613281 179.078125 185 L 179.078125 185.164062 C 177.210938 185.429688 176.171875 186.003906 175.167969 186.667969 C 174.824219 186.894531 174.523438 187.097656 174.050781 187.234375 L 174.050781 180 C 174.050781 178.621094 172.921875 177.5 171.535156 177.5 L 158.96875 177.5 L 158.96875 167.5 L 163.296875 167.5 Z M 184.105469 250 L 184.105469 185 C 184.105469 178.875 179.972656 171.621094 174.699219 168.464844 L 172.617188 167.234375 C 173.460938 166.824219 174.050781 165.996094 174.050781 165 L 174.050781 150 C 174.050781 148.621094 172.921875 147.5 171.535156 147.5 L 166.507812 147.5 L 166.507812 140 C 166.507812 138.621094 165.378906 137.5 163.996094 137.5 L 161.480469 137.5 L 161.480469 127.5 L 181.589844 127.5 C 182.976562 127.5 184.105469 126.375 184.105469 125 L 184.105469 120 C 184.105469 118.847656 183.320312 117.851562 182.199219 117.578125 L 162.089844 112.578125 C 161.894531 112.527344 161.6875 112.5 161.480469 112.5 L 141.375 112.5 C 137.210938 112.5 133.832031 115.859375 133.832031 120 C 133.832031 124.140625 137.210938 127.5 141.375 127.5 L 141.375 137.5 L 138.859375 137.5 C 137.476562 137.5 136.347656 138.621094 136.347656 140 L 136.347656 147.5 L 131.320312 147.5 C 129.933594 147.5 128.804688 148.621094 128.804688 150 L 128.804688 165 C 128.804688 165.996094 129.394531 166.824219 130.238281 167.234375 L 128.15625 168.464844 C 122.882812 171.621094 118.75 178.875 118.75 185 L 118.75 250 C 118.75 256.894531 124.386719 262.5 131.320312 262.5 L 171.535156 262.5 C 178.46875 262.5 184.105469 256.894531 184.105469 250 "/>
</g>
<path style=" stroke:none;fill-rule:nonzero;fill:rgb(0%,0%,0%);fill-opacity:1;" d="M 148.914062 195 L 148.914062 192.5 L 153.941406 192.5 L 153.941406 195 C 153.941406 196.375 155.070312 197.5 156.453125 197.5 L 158.96875 197.5 L 158.96875 202.5 L 156.453125 202.5 C 155.070312 202.5 153.941406 203.621094 153.941406 205 L 153.941406 207.5 L 148.914062 207.5 L 148.914062 205 C 148.914062 203.621094 147.785156 202.5 146.402344 202.5 L 143.886719 202.5 L 143.886719 197.5 L 146.402344 197.5 C 147.785156 197.5 148.914062 196.375 148.914062 195 Z M 143.886719 190 L 143.886719 192.5 L 141.375 192.5 C 139.988281 192.5 138.859375 193.621094 138.859375 195 L 138.859375 205 C 138.859375 206.375 139.988281 207.5 141.375 207.5 L 143.886719 207.5 L 143.886719 210 C 143.886719 211.375 145.015625 212.5 146.402344 212.5 L 156.453125 212.5 C 157.839844 212.5 158.96875 211.375 158.96875 210 L 158.96875 207.5 L 161.480469 207.5 C 162.867188 207.5 163.996094 206.375 163.996094 205 L 163.996094 195 C 163.996094 193.621094 162.867188 192.5 161.480469 192.5 L 158.96875 192.5 L 158.96875 190 C 158.96875 188.621094 157.839844 187.5 156.453125 187.5 L 146.402344 187.5 C 145.015625 187.5 143.886719 188.621094 143.886719 190 "/>
<path style=" stroke:none;fill-rule:nonzero;fill:rgb(0%,0%,0%);fill-opacity:1;" d="M 206.933594 138.496094 C 207.621094 140.058594 207.542969 141.445312 206.707031 142.5 C 205.960938 143.4375 204.695312 143.972656 203.613281 143.769531 C 202.664062 143.613281 201.976562 142.910156 201.574219 141.707031 C 200.34375 138.054688 198.578125 134.453125 197.035156 131.621094 C 201.050781 133.074219 205.578125 135.398438 206.933594 138.496094 Z M 196.800781 143.289062 C 197.792969 146.238281 199.960938 148.210938 202.75 148.699219 C 203.191406 148.777344 203.636719 148.808594 204.066406 148.808594 C 206.5625 148.808594 209.046875 147.625 210.65625 145.59375 C 212.648438 143.074219 212.972656 139.765625 211.550781 136.503906 C 207.957031 128.28125 193.726562 125.351562 192.117188 125.046875 C 191.136719 124.863281 190.113281 125.273438 189.554688 126.121094 C 188.996094 126.953125 188.996094 128.046875 189.554688 128.886719 C 189.605469 128.964844 194.425781 136.191406 196.800781 143.289062 "/>
<path style=" stroke:none;fill-rule:nonzero;fill:rgb(0%,0%,0%);fill-opacity:1;" d="M 138.859375 242.5 C 137.476562 242.5 136.347656 241.375 136.347656 240 C 136.347656 238.621094 137.476562 237.5 138.859375 237.5 C 140.242188 237.5 141.375 238.621094 141.375 240 C 141.375 241.375 140.242188 242.5 138.859375 242.5 Z M 138.859375 232.5 C 134.695312 232.5 131.320312 235.859375 131.320312 240 C 131.320312 244.140625 134.695312 247.5 138.859375 247.5 C 143.023438 247.5 146.402344 244.140625 146.402344 240 C 146.402344 235.859375 143.023438 232.5 138.859375 232.5 "/>
<path style=" stroke:none;fill-rule:nonzero;fill:rgb(0%,0%,0%);fill-opacity:1;" d="M 158.96875 237.5 C 157.585938 237.5 156.453125 236.375 156.453125 235 C 156.453125 233.621094 157.585938 232.5 158.96875 232.5 C 160.351562 232.5 161.480469 233.621094 161.480469 235 C 161.480469 236.375 160.351562 237.5 158.96875 237.5 Z M 158.96875 227.5 C 154.804688 227.5 151.425781 230.859375 151.425781 235 C 151.425781 239.140625 154.804688 242.5 158.96875 242.5 C 163.132812 242.5 166.507812 239.140625 166.507812 235 C 166.507812 230.859375 163.132812 227.5 158.96875 227.5 "/>
<path style=" stroke:none;fill-rule:nonzero;fill:rgb(0%,0%,0%);fill-opacity:1;" d="M 171.535156 247.5 L 166.507812 247.5 L 166.507812 252.5 L 171.535156 252.5 L 171.535156 247.5 "/>
<path style=" stroke:none;fill-rule:nonzero;fill:rgb(0%,0%,0%);fill-opacity:1;" d="M 156.453125 252.5 L 161.480469 252.5 L 161.480469 247.5 L 156.453125 247.5 L 156.453125 252.5 "/>
</g>
</svg>
