<?xml version="1.0" encoding="UTF-8"?>
<svg xmlns="http://www.w3.org/2000/svg" xmlns:xlink="http://www.w3.org/1999/xlink" width="375pt" height="374.999991pt" viewBox="0 0 375 374.999991" version="1.2">
<defs>
<clipPath id="clip1">
  <path d="M 117 115 L 262.5 115 L 262.5 260 L 117 260 Z M 117 115 "/>
</clipPath>
</defs>
<g id="surface1">
<path style=" stroke:none;fill-rule:nonzero;fill:rgb(98.039246%,75.289917%,66.668701%);fill-opacity:1;" d="M 161.261719 136.707031 C 161.261719 147.308594 152.644531 155.902344 142.011719 155.902344 C 131.382812 155.902344 122.765625 147.308594 122.765625 136.707031 C 122.765625 126.101562 131.382812 117.507812 142.011719 117.507812 C 152.644531 117.507812 161.261719 126.101562 161.261719 136.707031 "/>
<path style=" stroke:none;fill-rule:nonzero;fill:rgb(96.078491%,47.44873%,7.839966%);fill-opacity:1;" d="M 135.996094 142.703125 C 134.003906 140.714844 134.003906 137.492188 135.996094 135.503906 C 137.992188 133.515625 141.222656 133.515625 143.214844 135.503906 L 146.824219 139.105469 L 158.742188 127.21875 C 155.429688 121.417969 149.183594 117.507812 142.011719 117.507812 C 131.382812 117.507812 122.765625 126.101562 122.765625 136.707031 C 122.765625 143.855469 126.6875 150.089844 132.5 153.394531 L 139.605469 146.304688 L 135.996094 142.703125 "/>
<path style=" stroke:none;fill-rule:nonzero;fill:rgb(96.078491%,47.44873%,7.839966%);fill-opacity:1;" d="M 132.390625 155.902344 C 131.773438 155.902344 131.15625 155.667969 130.6875 155.199219 C 129.746094 154.261719 129.746094 152.746094 130.6875 151.808594 L 136.203125 146.304688 L 134.296875 144.402344 C 131.367188 141.480469 131.367188 136.730469 134.296875 133.808594 C 137.222656 130.886719 141.988281 130.886719 144.917969 133.808594 L 146.824219 135.710938 L 161.964844 120.609375 C 162.90625 119.671875 164.425781 119.671875 165.367188 120.609375 C 166.308594 121.546875 166.308594 123.066406 165.367188 124.003906 L 148.527344 140.800781 C 147.585938 141.738281 146.0625 141.738281 145.125 140.800781 L 141.515625 137.203125 C 141.003906 136.695312 140.328125 136.414062 139.605469 136.414062 C 138.886719 136.414062 138.207031 136.695312 137.699219 137.203125 C 136.648438 138.25 136.648438 139.960938 137.699219 141.007812 L 141.308594 144.609375 C 142.246094 145.546875 142.246094 147.0625 141.308594 148 L 134.089844 155.199219 C 133.621094 155.667969 133.003906 155.902344 132.390625 155.902344 "/>
<path style=" stroke:none;fill-rule:nonzero;fill:rgb(83.139038%,89.7995%,90.19928%);fill-opacity:1;" d="M 129.984375 220.699219 C 125.996094 220.699219 122.765625 223.921875 122.765625 227.902344 L 122.765625 232.699219 L 144.417969 232.699219 L 144.417969 220.699219 L 129.984375 220.699219 "/>
<path style=" stroke:none;fill-rule:nonzero;fill:rgb(98.039246%,75.289917%,66.668701%);fill-opacity:1;" d="M 129.984375 175.101562 L 120.359375 175.101562 L 120.359375 191.902344 L 129.984375 191.902344 L 129.984375 175.101562 "/>
<path style=" stroke:none;fill-rule:nonzero;fill:rgb(83.139038%,89.7995%,90.19928%);fill-opacity:1;" d="M 144.417969 232.699219 L 166.070312 232.699219 L 166.070312 227.902344 C 166.070312 223.921875 162.839844 220.699219 158.855469 220.699219 L 144.417969 220.699219 L 144.417969 232.699219 "/>
<path style=" stroke:none;fill-rule:nonzero;fill:rgb(30.198669%,66.268921%,89.019775%);fill-opacity:1;" d="M 129.984375 155.902344 C 124.667969 155.902344 120.359375 160.203125 120.359375 165.503906 L 120.359375 175.101562 L 129.984375 175.101562 L 129.984375 184.703125 L 158.855469 184.703125 L 158.855469 165.503906 L 166.070312 165.503906 L 166.070312 155.902344 L 129.984375 155.902344 "/>
<path style=" stroke:none;fill-rule:nonzero;fill:rgb(16.859436%,22.749329%,30.198669%);fill-opacity:1;" d="M 129.984375 191.902344 L 129.984375 220.699219 L 144.417969 220.699219 L 144.417969 191.902344 L 144.417969 220.699219 L 158.855469 220.699219 L 158.855469 184.703125 L 129.984375 184.703125 L 129.984375 191.902344 "/>
<path style=" stroke:none;fill-rule:nonzero;fill:rgb(98.039246%,75.289917%,66.668701%);fill-opacity:1;" d="M 185.320312 148.703125 C 182.664062 148.703125 180.507812 150.855469 180.507812 153.503906 L 180.507812 155.902344 L 166.070312 155.902344 L 166.070312 165.503906 L 185.320312 165.503906 C 187.976562 165.503906 190.132812 163.355469 190.132812 160.703125 C 190.132812 158.445312 190.132812 155.761719 190.132812 153.503906 C 190.132812 150.855469 187.980469 148.703125 185.320312 148.703125 "/>
<path style=" stroke:none;fill-rule:nonzero;fill:rgb(13.328552%,16.468811%,20.779419%);fill-opacity:1;" d="M 146.824219 220.699219 L 142.011719 220.699219 L 142.011719 199.101562 C 142.011719 197.777344 143.089844 196.703125 144.417969 196.703125 C 145.746094 196.703125 146.824219 197.777344 146.824219 199.101562 L 146.824219 220.699219 "/>
<path style=" stroke:none;fill-rule:nonzero;fill:rgb(47.44873%,53.329468%,53.729248%);fill-opacity:1;" d="M 146.824219 232.699219 L 142.011719 232.699219 L 142.011719 220.699219 L 146.824219 220.699219 L 146.824219 232.699219 "/>
<path style=" stroke:none;fill-rule:nonzero;fill:rgb(22.349548%,56.469727%,70.199585%);fill-opacity:1;" d="M 158.855469 184.703125 L 139.605469 184.703125 L 139.605469 179.902344 L 158.855469 179.902344 L 158.855469 184.703125 "/>
<path style=" stroke:none;fill-rule:nonzero;fill:rgb(92.158508%,61.959839%,53.729248%);fill-opacity:1;" d="M 168.476562 165.503906 L 163.667969 165.503906 L 163.667969 155.902344 L 168.476562 155.902344 L 168.476562 165.503906 "/>
<path style=" stroke:none;fill-rule:nonzero;fill:rgb(13.328552%,16.468811%,20.779419%);fill-opacity:1;" d="M 137.199219 223.101562 L 132.390625 223.101562 C 131.058594 223.101562 129.984375 222.027344 129.984375 220.699219 C 129.984375 219.375 131.058594 218.300781 132.390625 218.300781 L 137.199219 218.300781 C 138.53125 218.300781 139.605469 219.375 139.605469 220.699219 C 139.605469 222.027344 138.53125 223.101562 137.199219 223.101562 "/>
<path style=" stroke:none;fill-rule:nonzero;fill:rgb(13.328552%,16.468811%,20.779419%);fill-opacity:1;" d="M 156.449219 223.101562 L 151.636719 223.101562 C 150.308594 223.101562 149.230469 222.027344 149.230469 220.699219 C 149.230469 219.375 150.308594 218.300781 151.636719 218.300781 L 156.449219 218.300781 C 157.777344 218.300781 158.855469 219.375 158.855469 220.699219 C 158.855469 222.027344 157.777344 223.101562 156.449219 223.101562 "/>
<path style=" stroke:none;fill-rule:nonzero;fill:rgb(22.349548%,56.469727%,70.199585%);fill-opacity:1;" d="M 134.792969 184.703125 L 129.984375 184.703125 L 129.984375 165.503906 L 134.792969 165.503906 L 134.792969 184.703125 "/>
<path style=" stroke:none;fill-rule:nonzero;fill:rgb(92.158508%,61.959839%,53.729248%);fill-opacity:1;" d="M 129.984375 177.503906 L 120.359375 177.503906 L 120.359375 172.703125 L 129.984375 172.703125 L 129.984375 177.503906 "/>
<path style=" stroke:none;fill-rule:nonzero;fill:rgb(91.369629%,10.978699%,27.059937%);fill-opacity:1;" d="M 175.695312 211.101562 L 169.472656 211.101562 L 172.585938 208 C 173.523438 207.0625 173.523438 205.542969 172.585938 204.605469 C 171.644531 203.667969 170.121094 203.667969 169.183594 204.605469 L 161.964844 211.804688 C 161.574219 212.195312 161.328125 212.714844 161.273438 213.261719 C 161.199219 213.96875 161.460938 214.695312 161.964844 215.199219 L 169.183594 222.398438 C 169.652344 222.867188 170.269531 223.101562 170.882812 223.101562 C 172.976562 223.136719 174.109375 220.480469 172.585938 219.003906 L 169.472656 215.902344 L 175.695312 215.902344 C 178.882812 215.78125 178.882812 211.21875 175.695312 211.101562 "/>
<path style=" stroke:none;fill-rule:nonzero;fill:rgb(91.369629%,10.978699%,27.059937%);fill-opacity:1;" d="M 194.945312 211.101562 L 185.320312 211.101562 C 182.132812 211.21875 182.128906 215.78125 185.320312 215.902344 L 194.945312 215.902344 C 198.128906 215.785156 198.132812 211.21875 194.945312 211.101562 "/>
<path style=" stroke:none;fill-rule:nonzero;fill:rgb(91.369629%,10.978699%,27.059937%);fill-opacity:1;" d="M 218.457031 215.023438 C 219.148438 214.203125 219.183594 212.925781 218.527344 212.074219 C 218.460938 211.976562 218.378906 211.890625 218.296875 211.804688 L 211.082031 204.605469 C 210.140625 203.667969 208.617188 203.667969 207.679688 204.605469 C 206.738281 205.542969 206.738281 207.0625 207.679688 208 L 210.789062 211.101562 L 204.566406 211.101562 C 203.238281 211.101562 202.160156 212.175781 202.160156 213.5 C 202.160156 214.828125 203.238281 215.902344 204.566406 215.902344 L 210.789062 215.902344 L 207.679688 219.003906 C 205.503906 221.328125 208.75 224.566406 211.082031 222.398438 L 218.296875 215.199219 C 218.351562 215.140625 218.40625 215.082031 218.457031 215.023438 "/>
<path style=" stroke:none;fill-rule:nonzero;fill:rgb(98.039246%,75.289917%,66.668701%);fill-opacity:1;" d="M 216.597656 136.707031 C 216.597656 147.308594 225.214844 155.902344 235.84375 155.902344 C 246.476562 155.902344 255.09375 147.308594 255.09375 136.707031 C 255.09375 126.101562 246.476562 117.507812 235.84375 117.507812 C 225.214844 117.507812 216.597656 126.101562 216.597656 136.707031 "/>
<path style=" stroke:none;fill-rule:nonzero;fill:rgb(98.039246%,75.289917%,66.668701%);fill-opacity:1;" d="M 221.410156 220.699219 L 250.28125 220.699219 L 250.28125 206.300781 L 221.410156 206.300781 L 221.410156 220.699219 "/>
<path style=" stroke:none;fill-rule:nonzero;fill:rgb(83.139038%,89.7995%,90.19928%);fill-opacity:1;" d="M 221.410156 220.699219 C 217.421875 220.699219 214.191406 223.921875 214.191406 227.902344 L 214.191406 232.699219 L 257.496094 232.699219 L 257.496094 227.902344 C 257.496094 223.921875 254.265625 220.699219 250.28125 220.699219 L 221.410156 220.699219 "/>
<path style=" stroke:none;fill-rule:nonzero;fill:rgb(96.078491%,47.44873%,52.159119%);fill-opacity:1;" d="M 259.902344 165.503906 C 259.902344 160.203125 255.59375 155.902344 250.28125 155.902344 L 221.410156 155.902344 C 216.09375 155.902344 211.785156 160.203125 211.785156 165.503906 L 211.785156 184.703125 L 221.410156 184.703125 L 216.597656 206.300781 L 255.09375 206.300781 L 250.621094 184.761719 L 259.902344 184.703125 L 259.902344 165.503906 "/>
<path style=" stroke:none;fill-rule:nonzero;fill:rgb(92.158508%,61.959839%,53.729248%);fill-opacity:1;" d="M 233.4375 220.699219 L 233.4375 206.300781 L 238.25 206.300781 L 238.25 220.699219 L 233.4375 220.699219 "/>
<path style=" stroke:none;fill-rule:nonzero;fill:rgb(47.44873%,53.329468%,53.729248%);fill-opacity:1;" d="M 238.25 232.699219 L 233.4375 232.699219 L 233.4375 220.699219 L 238.25 220.699219 L 238.25 232.699219 "/>
<path style=" stroke:none;fill-rule:nonzero;fill:rgb(53.729248%,25.489807%,10.978699%);fill-opacity:1;" d="M 255.09375 136.707031 L 255.09375 146.410156 C 255.09375 151.652344 250.832031 155.902344 245.574219 155.902344 L 245.46875 155.902344 L 245.46875 143.90625 L 226.21875 136.707031 L 226.144531 155.875 C 220.875 155.890625 216.597656 151.636719 216.597656 146.378906 L 216.597656 136.707031 C 216.597656 126.101562 225.214844 117.507812 235.84375 117.507812 C 246.476562 117.507812 255.09375 126.101562 255.09375 136.707031 "/>
<path style=" stroke:none;fill-rule:nonzero;fill:rgb(16.859436%,22.749329%,30.198669%);fill-opacity:1;" d="M 231.03125 184.703125 L 231.03125 165.503906 L 240.65625 165.503906 L 240.65625 184.703125 L 231.03125 184.703125 "/>
<path style=" stroke:none;fill-rule:nonzero;fill:rgb(98.039246%,75.289917%,66.668701%);fill-opacity:1;" d="M 211.785156 165.503906 L 211.785156 184.703125 L 235.84375 184.703125 L 235.84375 175.101562 L 221.410156 175.101562 L 221.410156 165.503906 L 211.785156 165.503906 "/>
<path style=" stroke:none;fill-rule:nonzero;fill:rgb(98.039246%,75.289917%,66.668701%);fill-opacity:1;" d="M 259.902344 165.503906 L 259.902344 184.703125 L 235.84375 184.703125 L 235.84375 175.101562 L 250.28125 175.101562 L 250.28125 165.503906 L 259.902344 165.503906 "/>
<path style=" stroke:none;fill-rule:nonzero;fill:rgb(92.158508%,61.959839%,53.729248%);fill-opacity:1;" d="M 228.625 223.101562 L 221.410156 223.101562 C 220.082031 223.101562 219.003906 222.027344 219.003906 220.699219 C 219.003906 219.375 220.082031 218.300781 221.410156 218.300781 L 228.625 218.300781 C 229.957031 218.300781 231.03125 219.375 231.03125 220.699219 C 231.03125 222.027344 229.957031 223.101562 228.625 223.101562 "/>
<path style=" stroke:none;fill-rule:nonzero;fill:rgb(92.158508%,61.959839%,53.729248%);fill-opacity:1;" d="M 250.28125 223.101562 L 243.0625 223.101562 C 241.734375 223.101562 240.65625 222.027344 240.65625 220.699219 C 240.65625 219.375 241.734375 218.300781 243.0625 218.300781 L 250.28125 218.300781 C 251.609375 218.300781 252.6875 219.375 252.6875 220.699219 C 252.6875 222.027344 251.609375 223.101562 250.28125 223.101562 "/>
<path style=" stroke:none;fill-rule:nonzero;fill:rgb(92.158508%,61.959839%,53.729248%);fill-opacity:1;" d="M 259.902344 170.304688 L 250.28125 170.304688 L 250.28125 165.503906 L 259.902344 165.503906 L 259.902344 170.304688 "/>
<path style=" stroke:none;fill-rule:nonzero;fill:rgb(92.158508%,61.959839%,53.729248%);fill-opacity:1;" d="M 221.410156 170.304688 L 211.785156 170.304688 L 211.785156 165.503906 L 221.410156 165.503906 L 221.410156 170.304688 "/>
<path style=" stroke:none;fill-rule:nonzero;fill:rgb(92.158508%,61.959839%,53.729248%);fill-opacity:1;" d="M 238.25 184.703125 L 233.4375 184.703125 L 233.4375 175.101562 L 238.25 175.101562 L 238.25 184.703125 "/>
<path style=" stroke:none;fill-rule:nonzero;fill:rgb(16.859436%,22.749329%,30.198669%);fill-opacity:1;" d="M 158.855469 254.300781 C 157.527344 254.300781 156.449219 253.222656 156.449219 251.898438 C 156.449219 250.578125 157.527344 249.5 158.855469 249.5 C 160.179688 249.5 161.261719 250.578125 161.261719 251.898438 C 161.261719 253.222656 160.179688 254.300781 158.855469 254.300781 Z M 158.855469 244.699219 C 158.011719 244.699219 157.203125 244.847656 156.449219 245.113281 L 156.449219 242.300781 C 156.449219 240.976562 157.527344 239.898438 158.855469 239.898438 C 160.179688 239.898438 161.261719 240.976562 161.261719 242.300781 C 161.261719 243.625 162.335938 244.699219 163.667969 244.699219 C 164.996094 244.699219 166.070312 243.625 166.070312 242.300781 C 166.070312 238.328125 162.835938 235.101562 158.855469 235.101562 C 154.875 235.101562 151.636719 238.328125 151.636719 242.300781 L 151.636719 251.898438 C 151.636719 255.871094 154.875 259.097656 158.855469 259.097656 C 162.835938 259.097656 166.070312 255.871094 166.070312 251.898438 C 166.070312 247.929688 162.835938 244.699219 158.855469 244.699219 "/>
<path style=" stroke:none;fill-rule:nonzero;fill:rgb(16.859436%,22.749329%,30.198669%);fill-opacity:1;" d="M 180.507812 244.699219 C 181.835938 244.699219 182.914062 243.625 182.914062 242.300781 C 182.914062 240.972656 181.835938 239.898438 180.507812 239.898438 L 173.289062 239.898438 C 171.960938 239.898438 170.882812 240.972656 170.882812 242.300781 L 170.882812 256.699219 C 170.882812 258.023438 171.960938 259.097656 173.289062 259.097656 C 174.617188 259.097656 175.695312 258.023438 175.695312 256.699219 L 175.695312 251.898438 L 180.507812 251.898438 C 181.835938 251.898438 182.914062 250.824219 182.914062 249.5 C 182.914062 248.175781 181.835938 247.101562 180.507812 247.101562 L 175.695312 247.101562 L 175.695312 244.699219 L 180.507812 244.699219 "/>
<path style=" stroke:none;fill-rule:nonzero;fill:rgb(16.859436%,22.749329%,30.198669%);fill-opacity:1;" d="M 194.945312 244.699219 C 196.273438 244.699219 197.347656 243.625 197.347656 242.300781 C 197.347656 240.972656 196.273438 239.898438 194.945312 239.898438 L 187.726562 239.898438 C 186.398438 239.898438 185.320312 240.972656 185.320312 242.300781 L 185.320312 256.699219 C 185.320312 258.023438 186.398438 259.097656 187.726562 259.097656 L 194.945312 259.097656 C 196.273438 259.097656 197.347656 258.023438 197.347656 256.699219 C 197.347656 255.375 196.273438 254.300781 194.945312 254.300781 L 190.132812 254.300781 L 190.132812 251.898438 L 194.945312 251.898438 C 196.273438 251.898438 197.347656 250.824219 197.347656 249.5 C 197.347656 248.175781 196.273438 247.101562 194.945312 247.101562 L 190.132812 247.101562 L 190.132812 244.699219 L 194.945312 244.699219 "/>
<path style=" stroke:none;fill-rule:nonzero;fill:rgb(16.859436%,22.749329%,30.198669%);fill-opacity:1;" d="M 209.378906 244.699219 C 210.707031 244.699219 211.785156 243.625 211.785156 242.300781 C 211.785156 240.972656 210.707031 239.898438 209.378906 239.898438 L 202.160156 239.898438 C 200.832031 239.898438 199.753906 240.972656 199.753906 242.300781 L 199.753906 256.699219 C 199.753906 258.023438 200.832031 259.097656 202.160156 259.097656 L 209.378906 259.097656 C 210.707031 259.097656 211.785156 258.023438 211.785156 256.699219 C 211.785156 255.375 210.707031 254.300781 209.378906 254.300781 L 204.566406 254.300781 L 204.566406 251.898438 L 209.378906 251.898438 C 210.707031 251.898438 211.785156 250.824219 211.785156 249.5 C 211.785156 248.175781 210.707031 247.101562 209.378906 247.101562 L 204.566406 247.101562 L 204.566406 244.699219 L 209.378906 244.699219 "/>
<path style=" stroke:none;fill-rule:nonzero;fill:rgb(16.859436%,22.749329%,30.198669%);fill-opacity:1;" d="M 226.21875 239.898438 L 216.597656 239.898438 C 215.269531 239.898438 214.191406 240.972656 214.191406 242.300781 C 214.191406 243.625 215.269531 244.699219 216.597656 244.699219 L 219.003906 244.699219 L 219.003906 256.699219 C 219.003906 258.023438 220.082031 259.097656 221.410156 259.097656 C 222.738281 259.097656 223.816406 258.023438 223.816406 256.699219 L 223.816406 244.699219 L 226.21875 244.699219 C 227.550781 244.699219 228.625 243.625 228.625 242.300781 C 228.625 240.972656 227.550781 239.898438 226.21875 239.898438 "/>
<path style=" stroke:none;fill-rule:nonzero;fill:rgb(16.859436%,22.749329%,30.198669%);fill-opacity:1;" d="M 216.597656 194.300781 C 216.597656 195.628906 215.519531 196.703125 214.191406 196.703125 C 212.863281 196.703125 211.785156 195.628906 211.785156 194.300781 C 211.785156 192.976562 212.863281 191.902344 214.191406 191.902344 C 215.519531 191.902344 216.597656 192.976562 216.597656 194.300781 "/>
<path style=" stroke:none;fill-rule:nonzero;fill:rgb(16.859436%,22.749329%,30.198669%);fill-opacity:1;" d="M 203.363281 184.703125 C 202.007812 184.703125 200.761719 185.15625 199.753906 185.914062 C 198.75 185.15625 197.5 184.703125 196.144531 184.703125 C 194.972656 184.703125 193.882812 185.042969 192.957031 185.625 C 192.160156 185.046875 191.1875 184.703125 190.132812 184.703125 C 188.804688 184.703125 187.726562 185.777344 187.726562 187.101562 C 187.726562 188.429688 188.804688 189.503906 190.132812 189.503906 C 190.132812 189.667969 190.148438 189.824219 190.179688 189.980469 C 190.148438 190.21875 190.132812 190.457031 190.132812 190.703125 L 190.132812 194.300781 C 190.132812 195.628906 191.207031 196.703125 192.539062 196.703125 C 193.867188 196.703125 194.945312 195.628906 194.945312 194.300781 L 194.945312 190.703125 C 194.945312 190.039062 195.484375 189.503906 196.144531 189.503906 C 196.808594 189.503906 197.347656 190.039062 197.347656 190.703125 L 197.347656 194.300781 C 197.347656 195.628906 198.425781 196.703125 199.753906 196.703125 C 201.082031 196.703125 202.160156 195.628906 202.160156 194.300781 L 202.160156 190.703125 C 202.160156 190.039062 202.699219 189.503906 203.363281 189.503906 C 204.027344 189.503906 204.566406 190.039062 204.566406 190.703125 L 204.566406 194.300781 C 204.566406 195.628906 205.644531 196.703125 206.972656 196.703125 C 208.300781 196.703125 209.378906 195.628906 209.378906 194.300781 L 209.378906 190.703125 C 209.378906 187.394531 206.679688 184.703125 203.363281 184.703125 "/>
<path style=" stroke:none;fill-rule:nonzero;fill:rgb(16.859436%,22.749329%,30.198669%);fill-opacity:1;" d="M 182.914062 196.703125 L 173.289062 196.703125 C 171.960938 196.703125 170.882812 195.628906 170.882812 194.300781 L 170.882812 189.503906 C 170.882812 185.53125 174.121094 182.304688 178.101562 182.304688 C 179.429688 182.304688 180.507812 181.226562 180.507812 179.902344 C 180.507812 178.578125 179.429688 177.503906 178.101562 177.503906 C 176.777344 177.503906 175.695312 178.578125 175.695312 179.902344 C 175.695312 181.226562 174.617188 182.304688 173.289062 182.304688 C 171.960938 182.304688 170.882812 181.226562 170.882812 179.902344 C 170.882812 175.933594 174.121094 172.703125 178.101562 172.703125 C 182.082031 172.703125 185.320312 175.933594 185.320312 179.902344 C 185.320312 183.875 182.082031 187.101562 178.101562 187.101562 C 176.777344 187.101562 175.695312 188.179688 175.695312 189.503906 L 175.695312 191.902344 L 182.914062 191.902344 C 184.242188 191.902344 185.320312 192.976562 185.320312 194.300781 C 185.320312 195.628906 184.242188 196.703125 182.914062 196.703125 "/>
<g clip-path="url(#clip1)" clip-rule="nonzero">
<path style=" stroke:none;fill-rule:nonzero;fill:rgb(6.269836%,5.879211%,5.099487%);fill-opacity:1;" d="M 182.914062 196.703125 L 173.289062 196.703125 C 171.960938 196.703125 170.882812 195.628906 170.882812 194.300781 L 170.882812 189.503906 C 170.882812 185.53125 174.121094 182.304688 178.101562 182.304688 C 181.289062 182.183594 181.289062 177.625 178.101562 177.503906 C 176.777344 177.503906 175.695312 178.578125 175.695312 179.902344 C 175.695312 181.226562 174.617188 182.304688 173.289062 182.304688 C 171.960938 182.304688 170.882812 181.226562 170.882812 179.902344 C 170.882812 175.933594 174.121094 172.703125 178.101562 172.703125 C 182.082031 172.703125 185.320312 175.933594 185.320312 179.902344 C 185.320312 183.875 182.082031 187.101562 178.101562 187.101562 C 176.777344 187.101562 175.695312 188.179688 175.695312 189.503906 L 175.695312 191.902344 L 182.914062 191.902344 C 186.101562 192.019531 186.101562 196.585938 182.914062 196.703125 Z M 199.753906 196.703125 C 198.425781 196.703125 197.347656 195.628906 197.347656 194.300781 L 197.347656 190.703125 C 197.347656 190.039062 196.808594 189.503906 196.144531 189.503906 C 195.484375 189.503906 194.945312 190.039062 194.945312 190.703125 L 194.945312 194.300781 C 194.824219 197.480469 190.25 197.484375 190.132812 194.300781 C 190.144531 193.765625 190.089844 190.441406 190.179688 189.980469 C 190.148438 189.824219 190.132812 189.667969 190.132812 189.503906 C 188.804688 189.503906 187.726562 188.429688 187.726562 187.101562 C 187.894531 184.207031 191.132812 184.246094 192.957031 185.625 C 194.925781 184.304688 197.917969 184.441406 199.753906 185.914062 C 203.609375 182.933594 209.421875 185.800781 209.378906 190.703125 L 209.378906 194.300781 C 209.378906 195.628906 208.300781 196.703125 206.972656 196.703125 C 205.644531 196.703125 204.566406 195.628906 204.566406 194.300781 L 204.566406 190.703125 C 204.519531 189.117188 202.210938 189.117188 202.160156 190.703125 L 202.160156 194.300781 C 202.160156 195.628906 201.082031 196.703125 199.753906 196.703125 Z M 214.191406 196.703125 C 212.863281 196.703125 211.785156 195.628906 211.785156 194.300781 C 211.902344 191.121094 216.480469 191.125 216.597656 194.300781 C 216.597656 195.628906 215.519531 196.703125 214.191406 196.703125 Z M 228.625 242.300781 C 228.625 243.625 227.550781 244.699219 226.21875 244.699219 L 223.816406 244.699219 L 223.816406 256.699219 C 223.816406 258.023438 222.738281 259.097656 221.410156 259.097656 C 220.082031 259.097656 219.003906 258.023438 219.003906 256.699219 L 219.003906 244.699219 L 216.597656 244.699219 C 215.269531 244.699219 214.191406 243.625 214.191406 242.300781 C 214.191406 240.972656 215.269531 239.898438 216.597656 239.898438 L 226.21875 239.898438 C 227.550781 239.898438 228.625 240.972656 228.625 242.300781 Z M 204.566406 244.699219 L 204.566406 247.101562 L 209.378906 247.101562 C 210.707031 247.101562 211.785156 248.175781 211.785156 249.5 C 211.785156 250.824219 210.707031 251.898438 209.378906 251.898438 L 204.566406 251.898438 L 204.566406 254.300781 L 209.378906 254.300781 C 212.5625 254.414062 212.570312 258.980469 209.378906 259.097656 L 202.160156 259.097656 C 200.832031 259.097656 199.753906 258.023438 199.753906 256.699219 L 199.753906 242.300781 C 199.753906 240.972656 200.832031 239.898438 202.160156 239.898438 L 209.378906 239.898438 C 212.566406 240.019531 212.566406 244.582031 209.378906 244.699219 Z M 190.132812 244.699219 L 190.132812 247.101562 L 194.945312 247.101562 C 196.273438 247.101562 197.347656 248.175781 197.347656 249.5 C 197.347656 250.824219 196.273438 251.898438 194.945312 251.898438 L 190.132812 251.898438 L 190.132812 254.300781 L 194.945312 254.300781 C 198.128906 254.414062 198.132812 258.980469 194.945312 259.097656 L 187.726562 259.097656 C 186.398438 259.097656 185.320312 258.023438 185.320312 256.699219 L 185.320312 242.300781 C 185.320312 240.972656 186.398438 239.898438 187.726562 239.898438 L 194.945312 239.898438 C 198.132812 240.019531 198.128906 244.582031 194.945312 244.699219 Z M 175.695312 244.699219 L 175.695312 247.101562 L 180.507812 247.101562 C 181.835938 247.101562 182.914062 248.175781 182.914062 249.5 C 182.914062 250.824219 181.835938 251.898438 180.507812 251.898438 L 175.695312 251.898438 L 175.695312 256.699219 C 175.695312 258.023438 174.617188 259.097656 173.289062 259.097656 C 171.960938 259.097656 170.882812 258.023438 170.882812 256.699219 L 170.882812 242.300781 C 170.882812 240.972656 171.960938 239.898438 173.289062 239.898438 L 180.507812 239.898438 C 181.835938 239.898438 182.914062 240.972656 182.914062 242.300781 C 182.914062 243.625 181.835938 244.699219 180.507812 244.699219 Z M 158.855469 249.5 C 160.179688 249.5 161.261719 250.578125 161.261719 251.898438 C 161.140625 255.078125 156.566406 255.078125 156.449219 251.898438 C 156.449219 250.578125 157.527344 249.5 158.855469 249.5 Z M 151.636719 242.300781 L 151.636719 251.898438 C 152.03125 261.449219 165.675781 261.449219 166.070312 251.898438 C 166.164062 247.027344 161.003906 243.410156 156.449219 245.113281 L 156.449219 242.300781 C 156.449219 240.976562 157.527344 239.898438 158.855469 239.898438 C 160.179688 239.898438 161.261719 240.976562 161.261719 242.300781 C 161.261719 243.625 162.335938 244.699219 163.667969 244.699219 C 164.996094 244.699219 166.070312 243.625 166.070312 242.300781 C 166.070312 238.328125 162.835938 235.101562 158.855469 235.101562 C 154.875 235.101562 151.636719 238.328125 151.636719 242.300781 Z M 211.082031 204.605469 L 218.296875 211.804688 C 218.378906 211.890625 218.460938 211.976562 218.527344 212.074219 C 219.183594 212.925781 219.148438 214.203125 218.457031 215.023438 C 218.40625 215.082031 218.351562 215.140625 218.296875 215.199219 L 211.082031 222.398438 C 208.75 224.566406 205.503906 221.328125 207.679688 219.003906 L 210.789062 215.902344 L 204.566406 215.902344 C 203.238281 215.902344 202.160156 214.828125 202.160156 213.5 C 202.160156 212.175781 203.238281 211.101562 204.566406 211.101562 L 210.789062 211.101562 L 207.679688 208 C 205.503906 205.675781 208.75 202.4375 211.082031 204.605469 Z M 185.320312 215.902344 C 182.128906 215.78125 182.132812 211.21875 185.320312 211.101562 L 194.945312 211.101562 C 198.132812 211.21875 198.128906 215.785156 194.945312 215.902344 Z M 163.667969 227.902344 L 163.667969 230.300781 L 146.824219 230.300781 L 146.824219 199.101562 C 146.824219 197.777344 145.746094 196.703125 144.417969 196.703125 C 143.089844 196.703125 142.011719 197.777344 142.011719 199.101562 L 142.011719 230.300781 L 125.171875 230.300781 L 125.171875 227.902344 C 125.117188 225.320312 127.394531 223.046875 129.984375 223.101562 L 137.199219 223.101562 C 140.386719 222.984375 140.386719 218.417969 137.199219 218.300781 L 132.390625 218.300781 C 132.386719 205.132812 132.390625 178.664062 132.390625 165.503906 C 132.390625 164.179688 131.3125 163.105469 129.984375 163.105469 C 128.652344 163.105469 127.578125 164.179688 127.578125 165.503906 L 127.578125 172.703125 L 122.765625 172.703125 L 122.765625 165.503906 C 122.765625 161.535156 126.003906 158.304688 129.984375 158.304688 L 163.667969 158.304688 L 163.667969 163.105469 L 158.855469 163.105469 C 158.214844 163.105469 157.605469 163.355469 157.152344 163.808594 C 156.703125 164.257812 156.449219 164.867188 156.449219 165.503906 L 156.449219 182.304688 L 139.605469 182.304688 C 138.277344 182.304688 137.199219 183.378906 137.199219 184.703125 C 137.199219 186.027344 138.277344 187.101562 139.605469 187.101562 L 156.449219 187.101562 L 156.449219 218.300781 L 151.636719 218.300781 C 148.449219 218.417969 148.445312 222.984375 151.636719 223.101562 L 158.855469 223.101562 C 161.507812 223.101562 163.667969 225.253906 163.667969 227.902344 Z M 122.765625 189.503906 L 122.765625 177.503906 L 127.578125 177.503906 L 127.578125 189.503906 Z M 125.171875 136.707031 C 125.285156 120.355469 146.191406 113.824219 155.667969 126.890625 L 146.824219 135.710938 L 144.917969 133.808594 C 141.988281 130.886719 137.222656 130.886719 134.296875 133.808594 C 131.367188 136.730469 131.367188 141.480469 134.296875 144.402344 L 136.203125 146.304688 L 132.171875 150.328125 C 127.9375 147.273438 125.171875 142.304688 125.171875 136.707031 Z M 158.855469 136.707031 C 159.007812 147.996094 147.320312 156.367188 136.667969 152.632812 L 141.308594 148 C 142.246094 147.0625 142.246094 145.546875 141.308594 144.609375 L 137.699219 141.007812 C 135.265625 138.390625 138.894531 134.773438 141.515625 137.203125 L 145.125 140.800781 C 146.0625 141.738281 147.585938 141.738281 148.527344 140.800781 L 157.980469 131.371094 C 158.542969 133.050781 158.855469 134.839844 158.855469 136.707031 Z M 180.507812 158.304688 C 181.835938 158.304688 182.914062 157.230469 182.914062 155.902344 L 182.914062 153.503906 C 183.035156 150.328125 187.605469 150.324219 187.726562 153.503906 L 187.726562 160.703125 C 187.726562 162.027344 186.644531 163.105469 185.320312 163.105469 L 168.476562 163.105469 L 168.476562 158.304688 Z M 161.964844 215.199219 L 169.183594 222.398438 C 169.652344 222.867188 170.269531 223.101562 170.882812 223.101562 C 172.976562 223.136719 174.109375 220.480469 172.585938 219.003906 L 169.472656 215.902344 L 175.695312 215.902344 C 178.882812 215.78125 178.882812 211.21875 175.695312 211.101562 L 169.472656 211.101562 L 172.585938 208 C 173.523438 207.0625 173.523438 205.542969 172.585938 204.605469 C 171.644531 203.667969 170.121094 203.667969 169.183594 204.605469 L 161.964844 211.804688 C 161.515625 212.257812 161.25 212.886719 161.261719 213.527344 L 161.261719 167.902344 L 185.320312 167.902344 C 189.300781 167.902344 192.539062 164.675781 192.539062 160.703125 L 192.539062 153.503906 C 192.140625 143.957031 178.496094 143.953125 178.101562 153.503906 L 155.601562 153.503906 C 163.0625 147.78125 165.929688 136.375 161.679688 127.683594 L 165.367188 124.003906 C 167.542969 121.679688 164.292969 118.441406 161.964844 120.609375 L 159.101562 123.464844 C 155.136719 118.382812 148.953125 115.105469 142.011719 115.105469 C 121.480469 115.210938 112.679688 141.003906 128.539062 153.59375 C 122.585938 154.308594 117.953125 159.375 117.953125 165.503906 L 117.953125 191.902344 C 117.953125 193.226562 119.03125 194.300781 120.359375 194.300781 L 127.578125 194.300781 L 127.578125 218.601562 C 123.433594 219.605469 120.285156 223.621094 120.359375 227.902344 L 120.359375 232.699219 C 120.359375 234.027344 121.4375 235.101562 122.765625 235.101562 C 128 235.105469 161.722656 235.097656 166.070312 235.101562 C 167.402344 235.101562 168.476562 234.027344 168.476562 232.699219 L 168.476562 227.902344 C 168.476562 223.4375 165.40625 219.671875 161.261719 218.605469 L 161.261719 213.53125 C 161.269531 214.148438 161.527344 214.757812 161.964844 215.199219 Z M 257.496094 182.304688 C 253.289062 182.304688 242.582031 182.304688 238.25 182.304688 C 238.25 181.105469 238.25 178.699219 238.25 177.503906 L 250.28125 177.503906 C 250.917969 177.503906 251.53125 177.25 251.980469 176.800781 C 252.433594 176.351562 252.6875 175.738281 252.6875 175.101562 L 252.6875 167.902344 C 252.570312 164.726562 247.992188 164.722656 247.875 167.902344 L 247.875 172.703125 L 243.0625 172.703125 L 243.0625 165.503906 C 243.0625 164.179688 241.984375 163.105469 240.65625 163.105469 L 231.03125 163.105469 C 229.703125 163.105469 228.625 164.179688 228.625 165.503906 L 228.625 172.703125 L 223.816406 172.703125 L 223.816406 167.902344 C 223.699219 164.726562 219.121094 164.722656 219.003906 167.902344 L 219.003906 175.101562 C 219.003906 175.738281 219.257812 176.351562 219.707031 176.800781 C 220.160156 177.25 220.769531 177.503906 221.410156 177.503906 L 233.4375 177.503906 L 233.4375 182.304688 C 228.914062 182.304688 218.613281 182.304688 214.191406 182.304688 C 214.1875 181.1875 214.191406 167.054688 214.191406 165.503906 C 214.191406 161.535156 217.429688 158.304688 221.410156 158.304688 C 224.910156 158.296875 247.371094 158.308594 250.28125 158.304688 C 254.261719 158.304688 257.496094 161.535156 257.496094 165.503906 C 257.5 167.113281 257.496094 181.113281 257.496094 182.304688 Z M 238.25 172.703125 C 237.050781 172.703125 234.636719 172.703125 233.4375 172.703125 L 233.4375 167.902344 L 238.25 167.902344 Z M 252.136719 203.902344 C 249.921875 203.902344 221.824219 203.902344 219.597656 203.902344 L 223.339844 187.101562 C 229.640625 187.101562 242.339844 187.101562 248.648438 187.101562 Z M 253.683594 224.507812 C 254.589844 225.414062 255.09375 226.617188 255.09375 227.902344 L 255.09375 230.300781 L 238.25 230.300781 L 238.25 208.703125 L 247.875 208.703125 L 247.875 218.300781 L 243.0625 218.300781 C 241.734375 218.300781 240.65625 219.375 240.65625 220.699219 C 240.65625 222.027344 241.734375 223.101562 243.0625 223.101562 L 250.28125 223.101562 C 251.566406 223.101562 252.773438 223.601562 253.683594 224.507812 Z M 216.597656 227.902344 C 216.597656 225.253906 218.757812 223.101562 221.410156 223.101562 L 228.625 223.101562 C 231.8125 222.984375 231.816406 218.417969 228.625 218.300781 L 223.816406 218.300781 L 223.816406 208.703125 L 233.4375 208.703125 L 233.4375 230.300781 L 216.597656 230.300781 Z M 228.566406 151.859375 L 228.613281 140.164062 L 243.0625 145.566406 L 243.0625 151.886719 C 238.570312 154.046875 233.046875 154.035156 228.566406 151.859375 Z M 219.003906 136.707031 C 218.988281 132.296875 220.824219 127.898438 223.960938 124.8125 L 226.050781 123.050781 C 226.550781 122.695312 227.070312 122.363281 227.609375 122.058594 L 236.117188 119.914062 C 240.445312 119.953125 244.738281 121.789062 247.765625 124.851562 L 249.53125 126.933594 C 249.890625 127.433594 250.222656 127.953125 250.527344 128.492188 L 252.6875 137.003906 L 252.6875 146.410156 C 252.6875 149.496094 250.699219 152.128906 247.933594 153.101562 C 247.921875 152.976562 247.90625 152.851562 247.875 152.726562 L 247.875 143.90625 C 247.875 142.902344 247.253906 142.007812 246.3125 141.660156 L 227.066406 134.457031 C 226.332031 134.183594 225.503906 134.28125 224.855469 134.730469 C 224.207031 135.175781 223.816406 135.910156 223.816406 136.695312 L 223.75 153.074219 C 220.964844 152.128906 218.960938 149.332031 219.003906 146.378906 Z M 254.511719 154.273438 C 256.367188 152.175781 257.496094 149.421875 257.496094 146.410156 C 257.496094 146.308594 257.503906 136.722656 257.496094 136.625 C 257.496094 136.613281 257.496094 136.597656 257.496094 136.585938 C 257.476562 132.996094 256.574219 129.613281 254.992188 126.636719 C 254.519531 125.6875 253.964844 124.804688 253.3125 123.960938 C 252.722656 123.15625 252.078125 122.398438 251.386719 121.6875 C 244.964844 114.804688 233.921875 113.148438 225.75 117.605469 C 224.800781 118.078125 223.914062 118.628906 223.066406 119.28125 C 222.261719 119.871094 221.503906 120.511719 220.789062 121.203125 C 216.566406 125.171875 214.183594 130.933594 214.191406 136.707031 L 214.191406 146.378906 C 214.191406 149.320312 215.253906 152.089844 217.191406 154.265625 C 212.632812 155.972656 209.378906 160.367188 209.378906 165.503906 L 209.378906 184.703125 C 209.378906 186.027344 210.457031 187.101562 211.785156 187.101562 L 218.410156 187.101562 L 214.25 205.78125 C 214.089844 206.492188 214.265625 207.234375 214.722656 207.804688 C 215.175781 208.371094 215.867188 208.703125 216.597656 208.703125 L 219.003906 208.703125 L 219.003906 218.605469 C 214.855469 219.671875 211.785156 223.4375 211.785156 227.902344 L 211.785156 232.699219 C 211.785156 234.027344 212.863281 235.101562 214.191406 235.101562 L 257.496094 235.101562 C 258.828125 235.101562 259.902344 234.027344 259.902344 232.699219 L 259.902344 227.902344 C 259.976562 223.625 256.828125 219.605469 252.6875 218.601562 L 252.6875 208.703125 L 255.09375 208.703125 C 255.816406 208.703125 256.5 208.378906 256.957031 207.816406 C 257.414062 207.257812 257.59375 206.523438 257.449219 205.816406 L 253.5625 187.101562 L 259.902344 187.101562 C 261.234375 187.101562 262.308594 186.027344 262.308594 184.703125 L 262.308594 165.503906 C 262.308594 160.371094 259.0625 155.984375 254.511719 154.273438 "/>
</g>
</g>
</svg>
