<?xml version="1.0" encoding="UTF-8"?>
<svg xmlns="http://www.w3.org/2000/svg" xmlns:xlink="http://www.w3.org/1999/xlink" width="375pt" height="374.999991pt" viewBox="0 0 375 374.999991" version="1.2">
<defs>
<clipPath id="clip1">
  <path d="M 112.5 112.5 L 262.5 112.5 L 262.5 175 L 112.5 175 Z M 112.5 112.5 "/>
</clipPath>
<clipPath id="clip2">
  <path d="M 120 137 L 262.5 137 L 262.5 262.5 L 120 262.5 Z M 120 137 "/>
</clipPath>
</defs>
<g id="surface1">
<path style=" stroke:none;fill-rule:nonzero;fill:rgb(85.099792%,79.60968%,71.369934%);fill-opacity:1;" d="M 252.5 177.5 L 252.5 260 L 122.5 260 L 122.5 177.5 L 187.5 140 L 252.5 177.5 "/>
<path style=" stroke:none;fill-rule:nonzero;fill:rgb(100%,100%,100%);fill-opacity:1;" d="M 260 222.5 C 260 243.210938 243.210938 260 222.5 260 C 201.785156 260 185 243.210938 185 222.5 C 185 201.785156 201.785156 185 222.5 185 C 243.210938 185 260 201.785156 260 222.5 "/>
<path style=" stroke:none;fill-rule:nonzero;fill:rgb(98.81897%,83.918762%,60.778809%);fill-opacity:1;" d="M 247.5 125 L 247.5 150 L 227.5 150 L 227.5 125 L 247.5 125 "/>
<path style=" stroke:none;fill-rule:nonzero;fill:rgb(96.469116%,54.899597%,7.058716%);fill-opacity:1;" d="M 260 157.5 L 260 172.5 L 187.5 130 L 115 172.5 L 115 157.5 L 187.5 115 L 260 157.5 "/>
<path style=" stroke:none;fill-rule:nonzero;fill:rgb(92.549133%,92.158508%,92.549133%);fill-opacity:1;" d="M 175 205 L 175 260 L 140 260 L 140 205 L 175 205 "/>
<path style=" stroke:none;fill-rule:nonzero;fill:rgb(98.039246%,85.099792%,16.859436%);fill-opacity:1;" d="M 248.75 211.25 L 215 245 L 195 227.5 L 202.5 217.5 L 215 227.5 L 240 202.5 L 248.75 211.25 "/>
<path style=" stroke:none;fill-rule:nonzero;fill:rgb(32.159424%,47.839355%,77.648926%);fill-opacity:1;" d="M 202.5 170 L 202.5 180 L 187.5 180 L 187.5 170 L 202.5 170 "/>
<path style=" stroke:none;fill-rule:nonzero;fill:rgb(32.159424%,47.839355%,77.648926%);fill-opacity:1;" d="M 202.5 160 L 202.5 170 L 187.5 170 L 187.5 160 L 202.5 160 "/>
<path style=" stroke:none;fill-rule:nonzero;fill:rgb(32.159424%,47.839355%,77.648926%);fill-opacity:1;" d="M 187.5 170 L 187.5 180 L 172.5 180 L 172.5 170 L 187.5 170 "/>
<path style=" stroke:none;fill-rule:nonzero;fill:rgb(32.159424%,47.839355%,77.648926%);fill-opacity:1;" d="M 187.5 160 L 187.5 170 L 172.5 170 L 172.5 160 L 187.5 160 "/>
<g clip-path="url(#clip1)" clip-rule="nonzero">
<path style=" stroke:none;fill-rule:nonzero;fill:rgb(6.269836%,5.879211%,5.099487%);fill-opacity:1;" d="M 257.5 168.132812 L 188.769531 127.839844 C 188.367188 127.617188 187.9375 127.5 187.5 127.5 C 187.058594 127.5 186.628906 127.617188 186.230469 127.839844 L 117.5 168.132812 L 117.5 158.933594 L 187.5 117.898438 L 257.5 158.933594 Z M 230 127.5 L 245 127.5 L 245 145.808594 L 230 137.011719 Z M 261.269531 155.339844 L 250 148.738281 L 250 125 C 250 123.621094 248.875 122.5 247.5 122.5 L 227.5 122.5 C 226.121094 122.5 225 123.621094 225 125 L 225 134.082031 L 188.769531 112.839844 C 187.988281 112.382812 187.011719 112.382812 186.230469 112.839844 L 113.730469 155.339844 C 112.96875 155.789062 112.5 156.609375 112.5 157.5 L 112.5 172.5 C 112.5 173.398438 112.976562 174.226562 113.757812 174.667969 C 114.53125 175.117188 115.488281 175.105469 116.269531 174.65625 L 187.5 132.898438 L 258.699219 174.636719 C 259.082031 174.863281 259.519531 175 260 175 C 261.375 175 262.5 173.875 262.5 172.5 L 262.5 157.5 C 262.5 156.609375 262.03125 155.789062 261.269531 155.339844 "/>
</g>
<path style=" stroke:none;fill-rule:nonzero;fill:rgb(6.269836%,5.879211%,5.099487%);fill-opacity:1;" d="M 200 177.5 L 190 177.5 L 190 172.5 L 200 172.5 Z M 175 172.5 L 185 172.5 L 185 177.5 L 175 177.5 Z M 185 162.5 L 185 167.5 L 175 167.5 L 175 162.5 Z M 200 167.5 L 190 167.5 L 190 162.5 L 200 162.5 Z M 205 180 L 205 160 C 205 158.621094 203.875 157.5 202.5 157.5 L 172.5 157.5 C 171.121094 157.5 170 158.621094 170 160 L 170 180 C 170 181.375 171.121094 182.5 172.5 182.5 L 202.5 182.5 C 203.875 182.5 205 181.375 205 180 "/>
<path style=" stroke:none;fill-rule:nonzero;fill:rgb(6.269836%,5.879211%,5.099487%);fill-opacity:1;" d="M 147.5 232.5 L 152.5 232.5 L 152.5 222.5 L 147.5 222.5 L 147.5 232.5 "/>
<g clip-path="url(#clip2)" clip-rule="nonzero">
<path style=" stroke:none;fill-rule:nonzero;fill:rgb(6.269836%,5.879211%,5.099487%);fill-opacity:1;" d="M 222.5 257.5 C 203.203125 257.5 187.5 241.796875 187.5 222.5 C 187.5 203.203125 203.203125 187.5 222.5 187.5 C 241.796875 187.5 257.5 203.203125 257.5 222.5 C 257.5 241.796875 241.796875 257.5 222.5 257.5 Z M 250 257.5 L 241.824219 257.5 C 244.792969 255.847656 247.546875 253.796875 250 251.472656 Z M 177.5 257.5 L 177.5 205 C 177.5 203.621094 176.375 202.5 175 202.5 L 140 202.5 C 138.621094 202.5 137.5 203.621094 137.5 205 L 137.5 257.5 L 125 257.5 L 125 178.953125 L 187.5 142.871094 L 250 178.953125 L 250 193.523438 C 242.820312 186.726562 233.152344 182.5 222.5 182.5 C 200.449219 182.5 182.5 200.449219 182.5 222.5 C 182.5 237.546875 190.878906 250.671875 203.171875 257.5 Z M 172.5 257.5 L 142.5 257.5 L 142.5 207.5 L 172.5 207.5 Z M 255 199.277344 L 255 177.5 C 255 176.601562 254.519531 175.769531 253.75 175.320312 L 188.75 137.820312 C 187.976562 137.402344 187.019531 137.402344 186.25 137.820312 L 121.25 175.320312 C 120.476562 175.769531 120 176.601562 120 177.5 L 120 260 C 120 261.375 121.121094 262.5 122.5 262.5 L 252.5 262.5 C 253.875 262.5 255 261.375 255 260 L 255 245.722656 C 259.695312 239.167969 262.5 231.171875 262.5 222.5 C 262.5 213.828125 259.695312 205.828125 255 199.277344 "/>
</g>
<path style=" stroke:none;fill-rule:nonzero;fill:rgb(6.269836%,5.879211%,5.099487%);fill-opacity:1;" d="M 214.882812 241.582031 L 198.386719 227.148438 L 202.949219 221.0625 L 213.4375 229.453125 C 214.433594 230.253906 215.867188 230.164062 216.765625 229.265625 L 240 206.035156 L 245.214844 211.25 Z M 238.230469 200.730469 L 214.8125 224.148438 L 204.0625 215.546875 C 203.535156 215.125 202.851562 214.929688 202.1875 215.019531 C 201.511719 215.105469 200.90625 215.457031 200.496094 215.996094 L 192.996094 225.996094 C 192.214844 227.050781 192.371094 228.515625 193.347656 229.382812 L 213.347656 246.882812 C 213.828125 247.292969 214.414062 247.5 215 247.5 C 215.644531 247.5 216.277344 247.253906 216.765625 246.765625 L 250.515625 213.015625 C 251.492188 212.039062 251.492188 210.457031 250.515625 209.480469 L 241.765625 200.730469 C 240.789062 199.753906 239.207031 199.753906 238.230469 200.730469 "/>
</g>
</svg>
